<?xml version="1.0" encoding="utf-8"?>
<!-- Generator: Adobe Illustrator 22.0.0, SVG Export Plug-In . SVG Version: 6.00 Build 0)  -->
<svg version="1.1" id="圖層_1" xmlns="http://www.w3.org/2000/svg" xmlns:xlink="http://www.w3.org/1999/xlink" x="0px" y="0px"
	 viewBox="0 0 250 250" style="enable-background:new 0 0 250 250;" xml:space="preserve">
<style type="text/css">
	.st0{fill:#E6814E;}
	.st1{fill:#FFFFFF;}
</style>
<g id="圖層_1_1_">
	<circle class="st0" cx="125.7" cy="125" r="122.5"/>
	<path class="st1" d="M122.8,85.5c0,0-11.6-0.6-11.6-10.6c0-10.5,34.2-2,34.2-28c0-25.9-34.1-24.6-34.1-24.6s19.3,6.9,19.3,18.4
		S102.7,51.2,102.7,70C102.7,81.7,111.8,85.5,122.8,85.5z"/>
	<path class="st1" d="M68.1,216.8h108.6c8.1,0,14.7-6.9,14.7-15.5H53.5C53.5,209.8,60,216.8,68.1,216.8z"/>
	<path class="st1" d="M194.2,98.8v-6.2h-66.8h-12.3H48.4v17.7c0,0,0,0.1,0,1h77.3h68.5c19.5,0,21.7,10.6,21.7,18.6
		c0,14.8-11.5,25.3-30.9,29.3c5.7-11,9.2-23.9,9.2-38.3c0-1.3,0-2.4,0-3.4H48.4c0,1,0,2.1,0,3.4c0,43.1,31.1,74.2,62.5,74.2
		c0.3,0,0.5,0,0.8,0c1.2,0,2.4,0,3.5,0c6,0,9.9,0,12.3,0c2.5,0,3.4,0,3.5,0c0.3,0,0.5,0,0.8,0c16.2,0,32.3-8.3,44.1-22.1
		c35-2.8,52.6-21,52.6-43C228.4,110.4,216,98.8,194.2,98.8z"/>
</g>
<g id="圖層_2_1_">
</g>
</svg>
