<?xml version="1.0" encoding="utf-8"?>
<!-- Generator: Adobe Illustrator 22.0.0, SVG Export Plug-In . SVG Version: 6.00 Build 0)  -->
<svg version="1.1" id="圖層_1" xmlns="http://www.w3.org/2000/svg" xmlns:xlink="http://www.w3.org/1999/xlink" x="0px" y="0px"
	 viewBox="0 0 250 250" style="enable-background:new 0 0 250 250;" xml:space="preserve">
<style type="text/css">
	.st0{fill:#E6814E;}
	.st1{fill:#FFFFFF;}
	.st2{opacity:0.66;fill:#FFFFFF;enable-background:new    ;}
</style>
<g id="圖層_1_1_">
	<circle class="st0" cx="125.7" cy="125" r="122.5"/>
	<g>
		<g>
			<path class="st1" d="M103,103.9c-3.3,0.3-5.8,3.2-5.5,6.4c0.3,3.3,3.2,5.8,6.4,5.5c3.3-0.3,5.8-3.2,5.5-6.4
				C109.2,106.1,106.3,103.6,103,103.9z"/>
			<path class="st1" d="M119.8,76.3c-2.4,0.2-4.3,2.3-4.1,4.8c0.2,2.4,2.3,4.3,4.8,4.1c2.4-0.2,4.3-2.3,4.1-4.8
				S122.3,76.1,119.8,76.3z"/>
			<path class="st1" d="M173.1,128.1c-2.4,0.2-4.1,2.3-3.9,4.6c0.2,2.4,2.3,4.1,4.6,3.9c2.4-0.2,4.1-2.3,3.9-4.6
				S175.4,128,173.1,128.1z"/>
			<path class="st1" d="M87.9,128.1c-2.4,0.2-4.1,2.3-3.9,4.6c0.2,2.4,2.3,4.1,4.6,3.9c2.4-0.2,4.1-2.3,3.9-4.6S90.2,128,87.9,128.1
				z"/>
			<path class="st1" d="M136.4,122.3c-5.3,0.4-9.3,5.1-8.9,10.4c0.4,5.3,5.1,9.3,10.4,8.9c5.3-0.4,9.3-5.1,8.9-10.4
				C146.4,125.9,141.7,121.9,136.4,122.3z"/>
			<path class="st1" d="M130.9,109.6c-0.2-1.9-1.8-3.3-3.7-3.2c-1.9,0.2-3.3,1.8-3.2,3.7c0.2,1.9,1.8,3.3,3.7,3.2
				C129.7,113.2,131.1,111.5,130.9,109.6z"/>
			<path class="st1" d="M61.1,132.9c-1.9,0.2-3.3,1.8-3.2,3.7c0.2,1.9,1.8,3.3,3.7,3.2s3.3-1.8,3.2-3.7
				C64.7,134.1,63,132.7,61.1,132.9z"/>
			<path class="st1" d="M152.1,90.5c-3.6,0.3-6.3,3.4-6,7s3.4,6.3,7,6s6.3-3.4,6-7C158.8,92.8,155.7,90.2,152.1,90.5z"/>
		</g>
		<g>
			<path class="st1" d="M198.5,158c-0.6,0-1.1-0.2-1.4-0.3c-2-1.1-2.1-3.9-2.2-9.5c-0.1-3.2-0.2-7.2-0.7-11.3c-0.3-2-2-4.4-3.8-6.9
				c-2-2.7-4.3-5.8-5.3-9.5c-0.8-2.7-0.4-5.9-0.1-8.9c0.3-3.5,0.7-7.1-0.6-9.8c-1.1-2.2-3.8-3.9-6.6-5.7c-2.8-1.7-5.6-3.5-7.7-6.1
				c-1.8-2.2-2.7-5.2-3.6-8c-1.1-3.3-2.2-6.7-4.5-8.7c-1.8-1.5-4.9-2-8.2-2.5s-6.7-1.1-9.7-2.8c-2.6-1.5-4.5-4-6.5-6.4
				c-2.1-2.7-4.3-5.4-7.1-6.5c-1.1-0.4-1.7-1.7-1.2-2.8c0.4-1.1,1.7-1.7,2.8-1.2c3.9,1.5,6.6,4.9,9,7.9c1.7,2.2,3.4,4.3,5.2,5.3
				c2.3,1.3,5.3,1.8,8.2,2.2c3.7,0.6,7.5,1.2,10.3,3.5c3.3,2.8,4.6,7,5.8,10.7c0.8,2.6,1.6,5,2.9,6.7c1.6,2,4.1,3.6,6.6,5.1
				c3.2,2,6.6,4.1,8.2,7.5c1.9,3.8,1.4,8.2,1,12.1c-0.3,2.7-0.5,5.3,0,7.3c0.8,2.8,2.7,5.5,4.6,8c2.2,2.9,4.2,5.7,4.6,8.9
				c0.5,4.3,0.7,8.4,0.7,11.8c0.1,1.9,0.1,4.2,0.3,5.5c0.6,0.1,1.1,0.5,1.4,1c0.6,1,0.3,2.4-0.8,3C199.6,157.9,199,158,198.5,158z"
				/>
		</g>
		<g>
			<path class="st1" d="M60.5,200.3c-7.2,0-13.1-5.9-13.1-13.1V158h-4.6c-6.3,0-11.7-3.8-13.9-9.7s-0.4-12.3,4.3-16.4l92.9-78.5
				c-1.4-4.2-0.1-9,3.5-12.9c5.1-5.5,14.2-8.6,22.1-4.1c43.2,18.9,60.7,50,67.8,72.8c7.7,24.7,5.2,44.8,5.1,45.6
				c-0.3,1.9-1.9,3.3-3.8,3.3l0,0L185,158v20.5c0,7.2-5.9,13.1-13.1,13.1s-13.1-5.9-13.1-13.1V158H151v7c0,7.2-5.9,13.1-13.1,13.1
				c-7.2,0-13.1-5.9-13.1-13.1v-7h-9.9v13.7c0,7.2-5.9,13.1-13.1,13.1s-13.1-5.9-13.1-13.1V158h-15v29.2
				C73.6,194.4,67.7,200.3,60.5,200.3z M143.6,41.9c-3.2,0-6.4,1.6-8.4,3.8c-1.2,1.3-3,4-1.2,6.6c1.1,1.6,0.8,3.8-0.7,5.1
				l-95.2,80.4c-2.8,2.4-2.9,5.6-2.1,7.9c0.8,2.3,3,4.7,6.7,4.7h8.4c2.1,0,3.8,1.7,3.8,3.8v33c0,3,2.5,5.5,5.5,5.5s5.5-2.5,5.5-5.5
				v-33c0-2.1,1.7-3.8,3.8-3.8h22.6c2.1,0,3.8,1.7,3.8,3.8v17.6c0,3,2.5,5.5,5.5,5.5s5.5-2.5,5.5-5.5v-17.6c0-2.1,1.7-3.8,3.8-3.8
				h17.5c2.1,0,3.8,1.7,3.8,3.8V165c0,3,2.5,5.5,5.5,5.5s5.5-2.5,5.5-5.5v-10.8c0-2.1,1.7-3.8,3.8-3.8h15.3c2.1,0,3.8,1.7,3.8,3.8
				v24.3c0,3,2.5,5.5,5.5,5.5s5.5-2.5,5.5-5.5v-24.3c0-1,0.4-2,1.1-2.7c0.7-0.7,1.7-1.1,2.7-1.1l0,0l36.1,0.1
				c1-15.2,0.4-77.1-68.8-107.2C148.3,43.2,145.1,41.9,143.6,41.9z"/>
		</g>
		<g>
			<path class="st1" d="M196.7,154.2c-1.2,0-2.2-0.9-2.2-2.1c0-0.3-0.1-6.8,4.6-10.9c3.1-2.7,7.3-3.7,12.6-3s8.9,5.1,9.9,12.1
				l0.1,0.6c0.2,1.2-0.7,2.3-1.9,2.5s-2.3-0.7-2.5-1.9l-0.1-0.6c-0.5-3.5-1.9-7.8-6.1-8.3c-4-0.5-7,0.1-9.1,1.9
				c-3.1,2.8-3.1,7.5-3.1,7.6C198.9,153.2,197.9,154.2,196.7,154.2L196.7,154.2z"/>
		</g>
	</g>
</g>
<g id="圖層_2_1_">
	<path class="st2" d="M137.2,38.6l-6.2,9.3l1.1,3.2c0,0,4.8,5.5,5.1,6.3s4.9,9.3,4.9,9.3s10.4,2.5,10.6,2.5s9.1,1.5,9.1,1.5l3.4,3.3
		c0,0,3.6,11.3,3.9,11.3c0.4,0,1.9,5.5,4.3,6.2c2.3,0.8,8.8,5.6,8.8,5.6l5.5,6.5c0,0,0.8,10.4,0,11.2s0.2,6.8,0.3,7.7
		c0.2,0.8,6.4,9.7,6.4,9.7l3.5,7.8v6.4L208,142h7.7c0,0,5.9,8.9,5.7,7.6c-0.3-1.2-2.9-15.5-2.9-16.5s-4.8-26.4-4.8-26.4l-7-17.5
		l-12.2-16.3c0,0-11.8-12.8-12.8-13.5s-20.5-13-20.5-13l-14.4-6.5L137.2,38.6z"/>
</g>
</svg>
