<?xml version="1.0" encoding="utf-8"?>
<!-- Generator: Adobe Illustrator 22.0.0, SVG Export Plug-In . SVG Version: 6.00 Build 0)  -->
<svg version="1.1" id="圖層_1" xmlns="http://www.w3.org/2000/svg" xmlns:xlink="http://www.w3.org/1999/xlink" x="0px" y="0px"
	 viewBox="0 0 250 250" style="enable-background:new 0 0 250 250;" xml:space="preserve">
<style type="text/css">
	.st0{fill:#E6814E;}
	.st1{fill:#FFFFFF;}
</style>
<circle class="st0" cx="125.7" cy="125" r="122.5"/>
<g>
	<path class="st1" d="M174.5,118.8c2.9-2.9,7-7,2.9-11.1c-2.7-2.7-19.8-6-59.4,33.6c-15.4,15.4-11.8,22.2-17.1,29.9
		c-5.4,7.7-33.6,37.8-33.6,37.8l0.1-0.1l-0.4,0.5c-2.3,2.3-2.3,6.1,0,8.5c2.3,2.3,6.1,2.3,8.5,0l45.4-45.4l0.1-0.1
		C132.4,160.9,171.9,121.3,174.5,118.8z"/>
	<path class="st1" d="M152.9,87.4c-1.8-1.8-4.6-1.8-6.4,0l-29,29c-2.2,1.3-5.8-2.6-3.9-4.6l28.7-28.7c1.8-1.8,1.8-4.6,0-6.4
		s-4.6-1.8-6.4,0l-28.7,28.7c-2.1,1.9-6.2-2-4.3-4.2l28.8-28.8c1.8-1.8,1.8-4.6,0-6.4s-4.6-1.8-6.4,0l-31,31.1
		c-0.2,0.2-0.4,0.4-0.6,0.7c-5.6,6.9-5.6,22.5-5.6,22.5l0,0L34,174.4c-2.9,2.9-2.9,7.7,0,10.6c2.9,2.9,7.7,2.9,10.6,0l54.1-54.1v0.1
		c0,0,15.6-0.1,22.4-5.7c0.2-0.2,0.5-0.3,0.7-0.5l30.9-30.9C154.6,92,154.6,89.1,152.9,87.4z"/>
	<g>
		<path class="st1" d="M127.9,39.2c-46.4,0-84,37.6-84,84c0,8.7,1.3,17,3.7,24.9l31.7-31.7c0.4-6.1,1.8-17.1,7.3-24
			c0.4-0.6,0.9-1.1,1.4-1.6l30.9-30.9c2.6-2.6,5.9-4,9.5-4c3.6,0,7,1.4,9.5,4c1.9,1.9,3.2,4.3,3.7,6.9c2.6,0.5,5,1.8,6.9,3.7
			c2,2,3.2,4.4,3.7,6.9c2.6,0.5,5,1.8,6.9,3.7c2.6,2.5,4,5.9,4,9.5c0,3.5-1.3,6.7-3.7,9.3c5.2-1.9,9.3-2.6,12.6-2.6
			c4.9,0,9,1.5,11.7,4.1c4.5,4.5,5.6,10.5,3,16.1c-1.6,3.4-4.1,5.9-5.9,7.7l-5.3,5.3l-47.8,47.8l-0.1,0.1l-0.5,0.5l-24.5,24.5
			c8,2.5,16.4,3.9,25.2,3.9c46.4,0,84-37.6,84-84C211.9,76.8,174.3,39.2,127.9,39.2z"/>
	</g>
</g>
</svg>
