<?xml version="1.0" encoding="utf-8"?>
<!-- Generator: Adobe Illustrator 22.0.0, SVG Export Plug-In . SVG Version: 6.00 Build 0)  -->
<svg version="1.1" id="圖層_1" xmlns="http://www.w3.org/2000/svg" xmlns:xlink="http://www.w3.org/1999/xlink" x="0px" y="0px"
	 viewBox="0 0 250 250" style="enable-background:new 0 0 250 250;" xml:space="preserve">
<style type="text/css">
	.st0{fill:#E6814E;}
	.st1{fill:#FFFFFF;}
</style>
<circle class="st0" cx="125.7" cy="125" r="122.5"/>
<g>
	<path class="st1" d="M48.1,196.5c0,8.1,6.5,14.6,14.6,14.6h128.4c8.1,0,14.6-6.5,14.6-14.6V94.3H48.1V196.5z M164.8,117.7h17.6
		v17.6h-17.6V117.7z M164.8,141h17.6v17.6h-17.6V141z M141.5,117.7h17.6v17.6h-17.6V117.7z M141.5,141h17.6v17.6h-17.6V141z
		 M141.5,164.3h17.6v17.6h-17.6V164.3z M118.1,117.7h17.6v17.6h-17.6V117.7z M118.1,141h17.6v17.6h-17.6V141z M118.1,164.3h17.6
		v17.6h-17.6V164.3z M94.8,117.7h17.6v17.6H94.8C94.8,135.2,94.8,117.7,94.8,117.7z M94.8,141h17.6v17.6H94.8V141z M94.8,164.3h17.6
		v17.6H94.8C94.8,181.9,94.8,164.3,94.8,164.3z M71.4,141H89v17.6H71.4V141z M71.4,164.3H89v17.6H71.4V164.3z"/>
	<path class="st1" d="M156.1,65.3c3.2,0,5.8-2.6,5.8-5.8v-8.8v-8.8c0-3.2-2.6-5.8-5.8-5.8s-5.8,2.6-5.8,5.8v8.8v8.8
		C150.2,62.6,152.8,65.3,156.1,65.3z"/>
	<path class="st1" d="M191.1,50.7h-0.2h-6.7h-16.4v8.8c0,6.4-5.2,11.7-11.7,11.7s-11.7-5.2-11.7-11.7v-8.8h-11.7H121h-11.7v8.8
		c0,6.4-5.2,11.7-11.7,11.7c-6.4,0-11.7-5.2-11.7-11.7v-8.8H62.7c-8.1,0-14.6,6.5-14.6,14.6v23.3h157.6V65.3
		C205.7,57.2,199.1,50.7,191.1,50.7z"/>
	<path class="st1" d="M97.7,65.3c3.2,0,5.8-2.6,5.8-5.8v-8.8v-8.8c0-3.2-2.6-5.8-5.8-5.8c-3.2,0-5.8,2.6-5.8,5.8v8.8v8.8
		C91.8,62.6,94.5,65.3,97.7,65.3z"/>
</g>
</svg>
